# xmcd
#
# Track frame offsets: 
#        150
#        11480
#        27385
#        45387
#        68975
#        87995
#        109950
#        126132
#        137570
#        154480
#
# Disc length: 2270 seconds
#
# Revision: 1
# Processed by: cddbd v1.5.2PL0 Copyright (c) Steve Scherf et al.
# Submitted via: ExactAudioCopy v0.99pb5
#
DISCID=8408dc0a
DTITLE=PINKLOOP - dischordic
DYEAR=2004
DGENRE=Rock
TTITLE0=Breakthrough
TTITLE1=Wander about in the rain
TTITLE2=Flower standing in sound
TTITLE3=Shape of color
TTITLE4=Mr. mixjuice
TTITLE5=Let me tell you one more thing
TTITLE6=You are so cute a girl
TTITLE7=You and I
TTITLE8=A song left behind
TTITLE9=Dear to me
EXTD=YEAR: 2004/07
EXTT0=
EXTT1=
EXTT2=
EXTT3=
EXTT4=
EXTT5=
EXTT6=
EXTT7=
EXTT8=
EXTT9=
PLAYORDER=
